<?xml version="1.0" encoding="UTF-8" standalone="no"?>
<svg
   id="Layer_2"
   data-name="Layer 2"
   viewBox="0 0 359.85 54.33"
   version="1.1"
   sodipodi:docname="ecovalores_light.svg"
   inkscape:version="1.4.2 (f4327f4, 2025-05-13)"
   xmlns:inkscape="http://www.inkscape.org/namespaces/inkscape"
   xmlns:sodipodi="http://sodipodi.sourceforge.net/DTD/sodipodi-0.dtd"
   xmlns="http://www.w3.org/2000/svg"
   xmlns:svg="http://www.w3.org/2000/svg">
  <sodipodi:namedview
     id="namedview16"
     pagecolor="#ffffff"
     bordercolor="#000000"
     borderopacity="0.25"
     inkscape:showpageshadow="2"
     inkscape:pageopacity="0.0"
     inkscape:pagecheckerboard="0"
     inkscape:deskcolor="#d1d1d1"
     inkscape:zoom="16.947257"
     inkscape:cx="256.94423"
     inkscape:cy="20.740819"
     inkscape:window-width="1920"
     inkscape:window-height="1009"
     inkscape:window-x="-8"
     inkscape:window-y="-8"
     inkscape:window-maximized="1"
     inkscape:current-layer="g16" />
  <defs
     id="defs1">
    <style
       id="style1">
      .cls-1, .cls-2 {
        fill: #9795a3;
      }

      .cls-2 {
        stroke: #9795a3;
        stroke-miterlimit: 10;
        stroke-width: .42px;
      }

      .cls-3 {
        fill-rule: evenodd;
      }

      .cls-3, .cls-4 {
        fill: #159f91;
      }
    </style>
  </defs>
  <g
     id="Layer_1-2"
     data-name="Layer 1">
    <g
       id="g16">
      <g
         id="g3">
        <path
           class="cls-3"
           d="m 132.94,16.712712 v -0.02 c 0,0 -1.17,-3.12 -4.2,-6.15 -4.05,-4.0399999 -9.36,-6.0999999 -15.79,-6.0999999 -0.03,0 -0.06,0 -0.1,0 -6.43,0 -11.74,2.05 -15.79,6.0999999 -3.03,3.03 -4.18,6.12 -4.19,6.15 -0.06,0.14 -4.67,11.64 1.05,23 5.52,10.95 19.15,10.19 19.29,10.18 h 0.04 c 0,0 0.04,0 0.04,0 0.13,0 13.05,0.77 18.59,-10.18 5.74,-11.34 1.11,-22.86 1.06,-22.97 z m -11.61,20.36 c -1.31,2.49 -3.45,5.34 -8.42,5.34 -4.97,0 -7.11,-2.85 -8.42,-5.34 -1.46,-2.77 -2.54,-12.47 -0.26,-18.99 2.2,-6.26 8.11,-6.17 8.67,-6.15 0.57,-0.02 6.47,-0.11 8.67,6.15 2.29,6.52 1.2,16.22 -0.25,18.99 z"
           id="path1" />
        <path
           class="cls-4"
           d="m 72.22,33.100001 v 0.44 c -0.17,5.19 -2.39,8.16 -6.12,8.16 -5.91,0 -6.59,-8.81 -6.59,-15.44 0,-9.98 2.11,-14.24 7.07,-14.24 4.26,0 5.35,5.92 5.58,7.73 l 0.05,0.4 h 12.18 v -0.47 c -0.06,-1.91 -0.55,-6.77 -4.12,-10.5300001 -3.06,-3.23 -7.64,-4.87 -13.61,-4.87 -6.83,0 -12.35,2.66 -15.95,7.7000001 -4.61,6.45 -5.7,16.66 -2.71,25.39 2.34,6.83 7.06,9.91 10.61,11.29 2.39,0.93 5.04,1.39 7.69,1.39 3.56,0 7.13,-0.83 10.11,-2.45 7.25,-3.95 8.1,-11.73 8.19,-14.02 l 0.02,-0.48 H 72.21 Z"
           id="path2" />
        <path
           class="cls-3"
           d="M 20.33,4.4450009 C 0.23,4.4450009 0,25.895001 0,26.805001 c 0,8.62 2.65,23.08 20.39,23.08 16.6,0 19.3,-10.63 19.72,-13.4 H 28.85 c -0.31,1.55 -1.71,5.81 -7.98,5.97 -2.79,0.07 -5.04,-0.76 -6.71,-2.49 -3.46,-3.56 -3.16,-9.59 -3.15,-9.85 l 0.03,-0.56 h 29.61 c -0.11,-9.66 -3,-25.1100001 -20.33,-25.1100001 z m 8.36,17.8900001 -0.06,0.52 H 11.55 l -0.06,-0.53 c -0.31,-2.8 0.61,-5.59 2.53,-7.64 1.76,-1.89 4.12,-2.91 6.45,-2.82 2.22,0.09 4.4,1.21 5.98,3.07 1.73,2.03 2.55,4.73 2.23,7.4 z"
           id="path3" />
      </g>
      <rect
         class="cls-4"
         x="150.15"
         width="2.83"
         height="54.33"
         id="rect3" />
      <g
         id="g15">
        <g
           id="g10">
          <path
             class="cls-1"
             d="m 176.98,41.665001 -10.42,-29 h 3.98 l 8.51,24.54 8.04,-24.54 h 3.94 l -10.06,29 h -3.98 z"
             id="path4" />
          <path
             class="cls-1"
             d="m 210.47,41.305001 c -1.12,0.28 -1.55,0.36 -2.27,0.36 -2.15,0 -3.18,-0.92 -3.42,-3.06 -2.35,2.15 -4.46,3.06 -7.08,3.06 -4.22,0 -6.84,-2.39 -6.84,-6.17 0,-2.71 1.23,-4.53 3.66,-5.57 1.27,-0.52 1.99,-0.68 6.68,-1.27 2.71,-0.36 3.42,-0.88 3.46,-2.31 v -0.88 c 0,-1.99 -1.63,-3.1 -4.65,-3.1 -3.02,0 -4.61,1.15 -4.89,3.7 h -3.34 c 0.08,-2.07 0.48,-3.26 1.43,-4.34 1.43,-1.55 3.86,-2.43 6.92,-2.43 5.13,0 7.84,1.99 7.84,5.69 v 12.25 c 0,1.03 0.63,1.63 1.79,1.63 0.2,0 0.36,0 0.72,-0.08 v 2.51 z m -5.81,-10.86 c -1.11,0.52 -1.79,0.68 -5.33,1.15 -3.58,0.52 -5.01,1.63 -5.01,3.82 0,2.19 1.51,3.34 4.1,3.34 1.95,0 3.58,-0.64 4.93,-1.87 0.99,-0.92 1.31,-1.59 1.31,-2.71 v -3.74 z"
             id="path5" />
          <path
             class="cls-1"
             d="m 216.95,41.665001 h -3.34 v -29 h 3.34 z"
             id="path6" />
          <path
             class="cls-1"
             d="m 239.63,30.645001 c 0,6.84 -3.54,11.02 -9.43,11.02 -5.89,0 -9.43,-4.14 -9.43,-11.18 0,-7.04 3.5,-11.18 9.39,-11.18 5.89,0 9.47,4.1 9.47,11.34 z m -15.4,-0.16 c 0,5.05 2.27,8.12 5.97,8.12 3.7,0 5.97,-3.06 5.97,-8 0,-4.94 -2.23,-8.23 -5.97,-8.23 -3.74,0 -5.97,3.06 -5.97,8.12 z"
             id="path7" />
          <path
             class="cls-1"
             d="m 246.7132,19.890025 v 3.949589 c 1.9957,-3.239081 3.69883,-4.576508 5.94528,-4.576508 0.41794,0 0.74185,0.04179 1.32698,0.125384 v 3.531642 c -4.78548,-0.125384 -6.9379,2.204665 -6.9797,7.439435 v 11.305434 h -3.48984 V 19.890025 Z"
             id="path8"
             style="stroke-width:1.04486" />
          <path
             class="cls-1"
             d="m 258.56,31.435001 c 0.04,2.07 0.32,3.26 1.11,4.46 1.11,1.75 2.9,2.71 5.01,2.71 2.67,0 4.54,-1.43 5.45,-4.18 h 3.34 c -0.84,4.54 -4.14,7.24 -8.91,7.24 -5.89,0 -9.47,-4.18 -9.47,-11.06 0,-6.88 3.74,-11.3 9.55,-11.3 3.9,0 7.08,2.07 8.43,5.49 0.6,1.55 0.84,3.46 0.84,6.64 h -15.36 z m 11.78,-2.7 c 0,-3.74 -2.35,-6.36 -5.73,-6.36 -3.38,0 -5.69,2.51 -5.97,6.36 z"
             id="path9" />
          <path
             class="cls-1"
             d="m 288.99,25.715001 c -0.08,-2.19 -1.51,-3.34 -4.18,-3.34 -2.67,0 -4.42,1.19 -4.42,3.14 0,1.47 1.15,2.35 3.86,2.98 l 3.18,0.76 c 4.14,0.99 5.89,2.7 5.89,5.81 0,4.02 -3.34,6.6 -8.59,6.6 -5.25,0 -8.15,-2.31 -8.31,-7.12 h 3.5 c 0.2,1.47 0.44,2.07 0.96,2.67 0.84,0.88 2.35,1.39 4.14,1.39 2.9,0 4.85,-1.31 4.85,-3.3 0,-1.47 -0.92,-2.31 -3.22,-2.86 l -3.1,-0.76 c -4.93,-1.19 -6.6,-2.74 -6.6,-6.01 0,-3.86 3.14,-6.36 7.99,-6.36 4.85,0 7.52,2.31 7.56,6.4 H 289 Z"
             id="path10" />
        </g>
        <g
           id="g14"
           transform="translate(0,0.835001)">
          <path
             class="cls-1"
             d="m 318.84,24.88 c -0.08,-2.19 -1.51,-3.34 -4.18,-3.34 -2.67,0 -4.42,1.19 -4.42,3.14 0,1.47 1.15,2.35 3.86,2.98 l 3.18,0.76 c 4.14,0.99 5.89,2.7 5.89,5.81 0,4.02 -3.34,6.6 -8.59,6.6 -5.25,0 -8.15,-2.31 -8.31,-7.12 h 3.5 c 0.2,1.47 0.44,2.07 0.95,2.67 0.84,0.88 2.35,1.39 4.14,1.39 2.9,0 4.85,-1.31 4.85,-3.3 0,-1.47 -0.91,-2.31 -3.22,-2.86 l -3.1,-0.76 c -4.93,-1.19 -6.6,-2.74 -6.6,-6.01 0,-3.86 3.14,-6.36 8,-6.36 4.86,0 7.52,2.31 7.56,6.4 h -3.5 z"
             id="path11" />
          <path
             class="cls-1"
             d="m 331.21,40.83 h -4.14 v -4.14 h 4.14 z"
             id="path12" />
          <path
             class="cls-2"
             d="m 339.36,34.4 -2.19,6.22 h -2.81 l 7.39,-20.71 h 3.41 l 7.27,20.71 h -2.96 l -2.13,-6.22 z m 4.06,-11.65 -3.41,9.43 h 6.59 z"
             id="path13" />
          <path
             class="cls-1"
             d="m 359.85,40.83 h -4.14 v -4.14 h 4.14 z"
             id="path14" />
        </g>
      </g>
    </g>
  </g>
</svg>
